<?xml version="1.0" encoding="utf-8"?>
<!-- Generator: Adobe Illustrator 16.0.0, SVG Export Plug-In . SVG Version: 6.00 Build 0)  -->
<!DOCTYPE svg PUBLIC "-//W3C//DTD SVG 1.1//EN" "http://www.w3.org/Graphics/SVG/1.1/DTD/svg11.dtd">
<svg version="1.1" id="Layer_1" xmlns="http://www.w3.org/2000/svg" xmlns:xlink="http://www.w3.org/1999/xlink" x="0px" y="0px"
	 width="222px" height="172px" viewBox="839 237.5 222 172" enable-background="new 839 237.5 222 172" xml:space="preserve">
<g>
	<path fill="#FFFFFF" d="M1013.977,323.498c0,24.304-28.644,44.01-63.977,44.01c-35.335,0-63.977-19.706-63.977-44.01
		c0-24.303,28.642-44.006,63.977-44.006C985.334,279.491,1013.977,299.195,1013.977,323.498"/>
	<path fill="#FFD328" d="M1011.726,323.498c0,23.451-27.635,42.462-61.725,42.462c-34.089,0-61.726-19.011-61.726-42.462
		c0-23.447,27.637-42.457,61.726-42.457C984.094,281.041,1011.726,300.051,1011.726,323.498"/>
	<path fill="#FFD328" d="M983.512,345.783c0.957,0.188,1.934,0.385,2.924,0.596C985.445,346.169,984.469,345.972,983.512,345.783"/>
	<path fill="#FFD328" d="M976.484,344.703c-0.01-0.002-0.018-0.007-0.018-0.007h-0.008
		C976.459,344.696,976.476,344.697,976.484,344.703"/>
	<path fill="#FFD328" d="M974.381,344.496L974.381,344.496L974.381,344.496z"/>
	<polygon fill="#FFD328" points="974.976,344.548 974.976,344.548 974.974,344.548 	"/>
	<path fill="#FFD328" d="M975.721,344.627c0.021,0,0.042,0,0.06,0.004h-0.008c-0.016-0.004-0.034-0.004-0.054-0.004H975.721z"/>
	<path fill="#001689" d="M979.089,338.652c-1.375-0.167-2.756-0.29-4.137-0.376c-7.283-0.452-14.567,0.219-21.746,1.44
		c-6.983,1.185-13.869,2.85-20.814,4.244c-1.267,0.254-2.536,0.507-3.808,0.736c-7.686,1.394-15.843,2.779-23.606,1.138
		c-0.239-0.052-1.273-0.354-2.395-0.659c1.036,0.999,2.141,1.963,3.307,2.89c0.124,0.024,0.243,0.052,0.366,0.075
		c0.514,0.088,1.027,0.173,1.54,0.245c0.516,0.068,1.034,0.135,1.551,0.188c0.515,0.053,1.035,0.101,1.554,0.139
		c1.043,0.073,2.087,0.12,3.136,0.139c2.613,0.041,5.241-0.074,7.852-0.269c1.174-0.086,2.34-0.191,3.505-0.301
		c0.386-0.032,0.774-0.068,1.163-0.109c0.257-0.021,0.512-0.05,0.769-0.074c0.258-0.027,0.516-0.052,0.77-0.077
		c0.7-0.071,1.403-0.148,2.104-0.229c0.698-0.079,1.399-0.162,2.099-0.245c0.96-0.116,1.915-0.233,2.874-0.359
		c4.787-0.611,9.564-1.301,14.358-1.867c1.915-0.224,3.835-0.43,5.761-0.603c0.615-0.057,1.233-0.107,1.853-0.158
		c1.855-0.14,3.714-0.246,5.574-0.315c0.989-0.03,1.984-0.053,2.975-0.059c1.487-0.016,2.976,0.006,4.466,0.059
		c0.737,0.029,1.483,0.064,2.224,0.107c0.338,0.02,0.676,0.048,1.012,0.071c0.078,0.005,0.154,0.014,0.236,0.021
		c0.08,0.004,0.162,0.007,0.244,0.017l0,0c0.169,0.013,0.34,0.024,0.506,0.036h0.002l0,0c0.2,0.016,0.394,0.034,0.588,0.051h0.004
		l0,0l0,0h0.002l0,0l0,0l0,0h0.003c0.263,0.027,0.531,0.057,0.795,0.083c0.005,0,0.008,0,0.008,0
		c0.017,0.002,0.022,0.003,0.03,0.003c0.038,0.001,0.078,0.008,0.116,0.011c0.178,0.021,0.351,0.034,0.526,0.053l0,0
		c0,0,0.021,0.004,0.029,0.006c0.064,0.004,0.125,0.013,0.184,0.017c0.129,0.016,0.255,0.028,0.38,0.044l0,0l0,0h0.005l0,0
		c0.663,0.076,1.33,0.162,1.995,0.257c0.374,0.051,0.75,0.116,1.118,0.174c0.839,0.129,1.677,0.275,2.512,0.432
		c0.279,0.051,0.559,0.102,0.835,0.158c0.957,0.189,1.933,0.387,2.922,0.602c0.498,0.101,1,0.209,1.502,0.313
		c0.506,0.109,1.011,0.219,1.52,0.33c0.382,0.085,0.767,0.174,1.151,0.257c1.152,0.261,2.307,0.522,3.464,0.797
		c0.005,0.001,0.011,0.001,0.011,0.001c2.346-1.851,4.423-3.856,6.211-5.982C993.843,340.655,985.854,339.464,979.089,338.652"/>
	<path fill="#001689" d="M975.68,344.621c0.016,0,0.026,0.001,0.039,0.006c0.021,0,0.039,0,0.054,0.004
		c-0.083-0.01-0.165-0.018-0.245-0.025C975.576,344.608,975.629,344.616,975.68,344.621"/>
	<path fill="#FFFFFF" d="M990.605,347.284c-0.383-0.084-0.769-0.171-1.147-0.257c-0.51-0.112-1.017-0.222-1.522-0.331
		c-0.5-0.108-1.002-0.211-1.5-0.316c-0.99-0.212-1.968-0.408-2.924-0.597c-0.277-0.058-0.557-0.108-0.832-0.159
		c-0.837-0.155-1.674-0.304-2.512-0.433c-0.372-0.058-0.748-0.121-1.121-0.176c-0.665-0.091-1.333-0.177-1.996-0.256l0,0l0,0h-0.004
		l0,0c-0.126-0.015-0.252-0.027-0.379-0.041c-0.061-0.005-0.12-0.016-0.184-0.017c-0.01-0.005-0.018-0.007-0.018-0.007h-0.008
		h-0.004c-0.177-0.017-0.35-0.034-0.527-0.054c-0.038-0.003-0.076-0.008-0.116-0.009c-0.008,0-0.015-0.002-0.024-0.005
		c0,0-0.007,0-0.014,0h0.01c-0.018-0.005-0.04-0.005-0.061-0.005h-0.003c-0.013-0.003-0.022-0.005-0.039-0.005
		c-0.052-0.008-0.102-0.012-0.152-0.015c0.08,0.005,0.163,0.015,0.245,0.024c-0.264-0.028-0.531-0.055-0.794-0.081h-0.004l0,0l0,0
		l0,0h-0.002l0,0l0,0h-0.004c-0.192-0.021-0.389-0.035-0.587-0.051l0,0h-0.002l0,0l0,0l0,0c-0.167-0.015-0.338-0.024-0.506-0.039
		l0,0c-0.082-0.008-0.164-0.012-0.245-0.019c-0.081-0.004-0.158-0.012-0.234-0.019c-0.336-0.022-0.675-0.053-1.013-0.071
		c-0.74-0.045-1.481-0.081-2.225-0.106c-1.489-0.055-2.978-0.074-4.466-0.062c-0.989,0.007-1.984,0.031-2.974,0.062
		c-1.86,0.067-3.721,0.173-5.574,0.315c-0.62,0.051-1.238,0.103-1.854,0.157c-1.926,0.173-3.844,0.375-5.759,0.604
		c-4.793,0.564-9.572,1.255-14.359,1.865c-0.958,0.126-1.911,0.245-2.874,0.359c-0.7,0.085-1.401,0.169-2.102,0.246
		c-0.698,0.08-1.4,0.157-2.101,0.229c-0.255,0.025-0.514,0.05-0.771,0.076c-0.257,0.025-0.512,0.05-0.769,0.074
		c-0.387,0.04-0.777,0.074-1.162,0.109c-1.165,0.111-2.332,0.216-3.506,0.3c-2.61,0.195-5.235,0.312-7.851,0.268
		c-1.049-0.017-2.093-0.061-3.136-0.137c-0.519-0.036-1.04-0.085-1.554-0.14c-0.519-0.054-1.037-0.119-1.552-0.188
		c-0.514-0.075-1.027-0.155-1.539-0.246c-0.125-0.02-0.244-0.05-0.367-0.074c10.565,8.385,26.417,13.724,44.109,13.724
		c17.678,0,33.521-5.332,44.083-13.703c0,0-0.009-0.002-0.014-0.004C992.912,347.807,991.758,347.544,990.605,347.284
		 M974.976,344.548L974.976,344.548L974.976,344.548z"/>
	<path fill="none" d="M979.047,345.018c0.373,0.054,0.749,0.118,1.121,0.174c0.838,0.13,1.673,0.277,2.512,0.434"/>
	<line fill="none" x1="976.455" y1="344.696" x2="976.459" y2="344.696"/>
	<path fill="none" d="M910.903,348.712c1.042,0.075,2.088,0.12,3.135,0.137"/>
	<path fill="none" d="M927.327,348.098c0.257-0.027,0.516-0.051,0.77-0.077c0.7-0.071,1.403-0.148,2.104-0.229
		c0.697-0.078,1.4-0.162,2.098-0.246c0.962-0.114,1.916-0.232,2.876-0.358"/>
	<path fill="none" d="M914.038,348.849c2.615,0.043,5.241-0.074,7.853-0.267c1.174-0.087,2.34-0.191,3.505-0.301"/>
	<path fill="none" d="M957.145,344.558c1.854-0.143,3.714-0.246,5.574-0.315c0.989-0.03,1.984-0.055,2.974-0.062
		c1.487-0.012,2.976,0.007,4.466,0.062c0.74,0.027,1.484,0.062,2.225,0.106"/>
	<path fill="none" d="M990.605,347.284c1.152,0.26,2.31,0.522,3.464,0.798"/>
	<path fill="none" d="M906.258,348.14c0.516,0.089,1.027,0.173,1.541,0.242"/>
	<line fill="none" x1="974.381" y1="344.496" x2="974.381" y2="344.496"/>
	<line fill="none" x1="974.976" y1="344.548" x2="974.976" y2="344.548"/>
	<line fill="none" x1="974.976" y1="344.548" x2="974.976" y2="344.548"/>
	<path fill="#EE4138" d="M997.584,331.579c0.155,0,0.329,0,0.456-0.021c0.302-0.048,0.529-0.175,0.534-0.477
		c0-0.304-0.223-0.436-0.527-0.491c-0.125,0-0.309,0.011-0.457,0.011h-0.127l-0.003,0.979H997.584z M998.738,333.07l-1.172-1.21
		l-0.106-0.001l-0.005,1.206h-0.433l0.013-2.774l0.555,0.01c0.148,0,0.493-0.01,0.643,0.017c0.551,0.049,0.79,0.283,0.789,0.742
		c0,0.425-0.379,0.729-0.983,0.773v0.029l1.229,1.207L998.738,333.07 M1000.053,331.719c0.001-1.17-0.932-2.108-2.101-2.114
		c-1.182-0.01-2.12,0.929-2.128,2.106c-0.002,1.166,0.934,2.119,2.108,2.119C999.104,333.837,1000.053,332.898,1000.053,331.719
		 M995.425,331.707c0-1.395,1.134-2.507,2.527-2.506c1.393,0.001,2.499,1.131,2.499,2.523c-0.004,1.397-1.128,2.51-2.519,2.51
		C996.543,334.223,995.419,333.104,995.425,331.707"/>
	<path fill="#E1251B" d="M917.026,309.023c1.628,0,2.67,1.065,2.67,3.238c0,2.213-1.073,3.051-2.67,3.051h-7.596v4.121h6.31
		c1.63,0,2.845,0.762,2.845,2.938c0,2.209-1.215,2.97-2.845,2.97h-6.31v6.332c0,2.138-0.831,3.012-2.943,3.012h-0.556
		c-2.187,0-2.946-0.878-2.946-3.012v-19.564c0-2.172,0.832-3.086,2.946-3.086H917.026z"/>
	<path fill="#E1251B" d="M930.787,309.023c5.337,0,8.908,2.972,8.908,8.351c0,4.384-2.668,6.293-4.679,6.9
		c1.281,2.441,3.637,5.417,5.891,6.524c-0.137,1.752-1.244,4.156-3.811,4.156c-4.335,0-6.447-6.407-7.905-9.648h-1.908v6.368
		c0,2.177-0.829,3.012-2.947,3.012h-0.485c-2.634,0-2.979-0.762-2.979-2.935v-19.642c0-2.213,0.831-3.086,2.912-3.086H930.787z
		 M927.286,320.5h3.051c1.664,0,3.053-0.917,3.053-2.742c0-1.949-1.32-2.749-3.053-2.749h-3.051V320.5z"/>
	<path fill="#E1251B" d="M946.456,309.023c2.117,0,2.945,0.914,2.945,3.086v19.564c0,2.138-0.829,3.012-2.945,3.012h-0.553
		c-2.186,0-2.947-0.878-2.947-3.012v-19.564c0-2.172,0.833-3.086,2.947-3.086H946.456z"/>
	<path fill="#E1251B" d="M995.51,321.91c0,9.763-6.239,13.119-11.477,13.119c-5.302,0-11.541-3.356-11.541-13.119
		c0-9.837,6.204-13.232,11.51-13.232C989.304,308.678,995.51,312.073,995.51,321.91 M979.077,321.874
		c0,4.806,2.532,6.599,4.925,6.599c2.425,0,4.921-1.793,4.921-6.599c0-4.807-2.496-6.562-4.921-6.562
		C981.609,315.312,979.077,317.067,979.077,321.874"/>
	<path fill="#E1251B" d="M967.777,325.412c-0.752-1.411-1.972-3.527-2.775-4.491c3.434-3.547,5.721-6.827,6.832-9.306
		c0.104-0.266,0.173-0.647,0.173-0.838c0-0.957-0.658-1.753-1.872-1.753h-1.107c-2.534,0-3.573,1.024-4.439,2.552
		c-1.385,2.443-2.457,4.655-5.301,8.125v-7.019c0-2.556-0.59-3.659-2.915-3.659h-0.589c-2.322,0-2.911,1.104-2.911,3.659v18.421
		c0,2.44,0.346,3.582,2.911,3.582h0.589c2.529,0,2.915-1.753,2.915-4.117v-6.827c2.412,1.234,4.78,11.217,9.566,11.217
		c3.086,0,3.919-2.404,4.058-4.153C970.812,329.725,968.812,327.348,967.777,325.412"/>
	<path fill="#E1251B" d="M995.057,299.516c-0.837,0.623-2.635,1.813-3.865,2.639c-1.32,0.89-1.851-0.132-2.333-1.32
		c-0.478-1.188-0.848-2.74-1.438-4.633c-0.595-1.894-2.377-1.976-2.91,0c-0.385,1.423-1.157,3.474-1.694,5.085
		c-0.535,1.61-1.555,0.932-2.516,0.142c-0.96-0.792-2.85-2.929-4.851-5.377c-1.72-2.11-4.301-0.794-3.394,1.855
		c0.419,1.22,3.628,9.962,4.071,11.143c2.23-2.16,5.155-2.872,7.854-2.872c2.751,0,5.737,0.746,7.986,2.996
		c0.272-0.458,4.009-6.831,4.827-8.229C997.557,299.646,996.199,298.667,995.057,299.516"/>
</g>
</svg>
